<svg width="16" height="16" viewBox="0 0 16 16" fill="none" xmlns="http://www.w3.org/2000/svg">
<path d="M13.2012 6.5C13.4799 6.5 13.6196 6.50033 13.7266 6.55469C13.8202 6.60241 13.8976 6.67978 13.9453 6.77344C13.9997 6.88036 14 7.02014 14 7.2998V9.2002C14 10.8802 13.9998 11.7206 13.6729 12.3623C13.3853 12.9265 12.9265 13.3853 12.3623 13.6729C11.7206 13.9998 10.8802 14 9.2002 14H6.7998C5.11978 14 4.27941 13.9998 3.6377 13.6729C3.07347 13.3853 2.61472 12.9265 2.32715 12.3623C2.00018 11.7206 2 10.8802 2 9.2002V7.2998C2 7.02014 2.00033 6.88036 2.05469 6.77344C2.10241 6.67978 2.17978 6.60241 2.27344 6.55469C2.38036 6.50033 2.52012 6.5 2.79883 6.5H13.2012ZM6.85645 8.06738C6.64934 8.06738 6.48145 8.23528 6.48145 8.44238C6.48145 8.64949 6.64934 8.81738 6.85645 8.81738H8.61133V8.82324L7.08008 11.8408C6.94265 12.1117 7.1396 12.4326 7.44336 12.4326C7.59694 12.4325 7.73741 12.3461 7.80664 12.209L9.45508 8.93555C9.49714 8.852 9.51953 8.75956 9.51953 8.66602C9.51938 8.33537 9.2506 8.06738 8.91992 8.06738H6.85645ZM10.5 1.5C10.7761 1.5 11 1.72386 11 2V2.53027C11.5884 2.56624 12.006 2.64562 12.3623 2.82715C12.9265 3.11472 13.3853 3.57347 13.6729 4.1377C13.7534 4.29575 13.8132 4.46639 13.8584 4.6582C13.9153 4.89954 13.9445 5.02039 13.9023 5.15234C13.8689 5.25678 13.7776 5.3722 13.6836 5.42871C13.5648 5.50005 13.4155 5.5 13.1182 5.5H2.88184C2.58446 5.5 2.43521 5.50005 2.31641 5.42871C2.22244 5.3722 2.13107 5.25678 2.09766 5.15234C2.05552 5.02039 2.08467 4.89954 2.1416 4.6582C2.18685 4.46639 2.24661 4.29575 2.32715 4.1377C2.61472 3.57347 3.07347 3.11472 3.6377 2.82715C3.99397 2.64562 4.41156 2.56624 5 2.53027V2C5 1.72386 5.22386 1.5 5.5 1.5C5.77614 1.5 6 1.72386 6 2V2.50293C6.24369 2.50123 6.50918 2.5 6.7998 2.5H9.2002C9.49082 2.5 9.75631 2.50123 10 2.50293V2C10 1.72386 10.2239 1.5 10.5 1.5Z" fill="#C279FF"/>
</svg>
