<svg width="24" height="24" viewBox="0 0 24 24" fill="none" xmlns="http://www.w3.org/2000/svg">
<path d="M13.7998 3C16.32 3 17.5804 2.99981 18.543 3.49023C19.3897 3.92166 20.0783 4.6103 20.5098 5.45703C21.0002 6.41962 21 7.68003 21 10.2002V13.7998C21 16.32 21.0002 17.5804 20.5098 18.543C20.0783 19.3897 19.3897 20.0783 18.543 20.5098C17.5804 21.0002 16.32 21 13.7998 21H10.2002C7.68003 21 6.41962 21.0002 5.45703 20.5098C4.6103 20.0783 3.92166 19.3897 3.49023 18.543C2.99981 17.5804 3 16.32 3 13.7998V10.2002C3 7.68003 2.99981 6.41962 3.49023 5.45703C3.92166 4.6103 4.6103 3.92166 5.45703 3.49023C6.41962 2.99981 7.68003 3 10.2002 3H13.7998ZM12 4.5C7.85786 4.5 4.5 7.85786 4.5 12C4.5 16.1421 7.85786 19.5 12 19.5C16.1421 19.5 19.5 16.1421 19.5 12C19.5 7.85786 16.1421 4.5 12 4.5ZM12 10.5C12.8284 10.5 13.5 11.1716 13.5 12C13.5 12.8284 12.8284 13.5 12 13.5C11.1716 13.5 10.5 12.8284 10.5 12C10.5 11.1716 11.1716 10.5 12 10.5Z" fill="#C279FF"/>
</svg>
