<svg width="16" height="16" viewBox="0 0 16 16" fill="none" xmlns="http://www.w3.org/2000/svg">
<path d="M2.5 4.4C2.5 3.55992 2.5 3.13988 2.66349 2.81901C2.8073 2.53677 3.03677 2.3073 3.31901 2.16349C3.63988 2 4.05992 2 4.9 2H5.1C5.94008 2 6.36012 2 6.68099 2.16349C6.96323 2.3073 7.1927 2.53677 7.33651 2.81901C7.5 3.13988 7.5 3.55992 7.5 4.4V11.6C7.5 12.4401 7.5 12.8601 7.33651 13.181C7.1927 13.4632 6.96323 13.6927 6.68099 13.8365C6.36012 14 5.94008 14 5.1 14H4.9C4.05992 14 3.63988 14 3.31901 13.8365C3.03677 13.6927 2.8073 13.4632 2.66349 13.181C2.5 12.8601 2.5 12.4401 2.5 11.6V4.4Z" fill="#C279FF"/>
<path d="M8.5 4.4C8.5 3.55992 8.5 3.13988 8.66349 2.81901C8.8073 2.53677 9.03677 2.3073 9.31901 2.16349C9.63988 2 10.0599 2 10.9 2H11.1C11.9401 2 12.3601 2 12.681 2.16349C12.9632 2.3073 13.1927 2.53677 13.3365 2.81901C13.5 3.13988 13.5 3.55992 13.5 4.4V11.6C13.5 12.4401 13.5 12.8601 13.3365 13.181C13.1927 13.4632 12.9632 13.6927 12.681 13.8365C12.3601 14 11.9401 14 11.1 14H10.9C10.0599 14 9.63988 14 9.31901 13.8365C9.03677 13.6927 8.8073 13.4632 8.66349 13.181C8.5 12.8601 8.5 12.4401 8.5 11.6V4.4Z" fill="#C279FF"/>
</svg>
