<svg width="16" height="16" viewBox="0 0 16 16" fill="none" xmlns="http://www.w3.org/2000/svg">
<path d="M9.2002 2C10.8802 2 11.7206 2.00018 12.3623 2.32715C12.9265 2.61472 13.3853 3.07347 13.6729 3.6377C13.9998 4.27941 14 5.11978 14 6.7998V9.2002C14 10.8802 13.9998 11.7206 13.6729 12.3623C13.3853 12.9265 12.9265 13.3853 12.3623 13.6729C11.7206 13.9998 10.8802 14 9.2002 14H6.7998C5.11978 14 4.27941 13.9998 3.6377 13.6729C3.07347 13.3853 2.61472 12.9265 2.32715 12.3623C2.00018 11.7206 2 10.8802 2 9.2002V6.7998C2 5.11978 2.00018 4.27941 2.32715 3.6377C2.61472 3.07347 3.07347 2.61472 3.6377 2.32715C4.27941 2.00018 5.11978 2 6.7998 2H9.2002ZM5.91211 5.08984V10.9102H10.0879V9.87891H7.11523V8.47266H9.86523V7.46875H7.11523V6.12109H10.0879V5.08984H5.91211Z" fill="#C279FF"/>
</svg>
