<svg width="16" height="16" viewBox="0 0 16 16" fill="none" xmlns="http://www.w3.org/2000/svg">
<path d="M11.9355 1.77024C12.8692 1.5702 13.7499 2.2822 13.75 3.23703V10.4997C13.75 11.9243 12.6307 12.4997 11.25 12.4997C9.86929 12.4997 8.75 11.9243 8.75 10.4997C8.75013 9.07534 9.86937 8.49973 11.25 8.49973C11.5635 8.49973 11.8632 8.53022 12.1394 8.59349C12.3875 8.65031 12.5115 8.67872 12.5771 8.65743C12.6426 8.63619 12.6793 8.60698 12.7146 8.54789C12.75 8.48865 12.75 8.37893 12.75 8.1595V4.98703C12.7499 4.66894 12.4566 4.43132 12.1455 4.49778L7.34277 5.52707C6.99711 5.6012 6.75011 5.90696 6.75 6.26047V12.4997C6.75 13.9243 5.63071 14.4997 4.25 14.4997C2.86929 14.4997 1.75 13.9243 1.75 12.4997C1.75013 11.0753 2.86937 10.4997 4.25 10.4997C4.56355 10.4997 4.86324 10.5302 5.13945 10.5935C5.38746 10.6503 5.51146 10.6787 5.57712 10.6574C5.64261 10.6362 5.67926 10.607 5.71458 10.5479C5.75 10.4886 5.75 10.3789 5.75 10.1595V4.30832C5.75011 3.60118 6.24411 2.98977 6.93555 2.84153L11.9355 1.77024Z" fill="#C279FF"/>
</svg>
