<svg width="24" height="24" viewBox="0 0 24 24" fill="none" xmlns="http://www.w3.org/2000/svg">
<path d="M9.75 5.25H20.625" stroke="#C279FF" stroke-width="1.5" stroke-linecap="round" stroke-linejoin="round"/>
<path d="M6.00231 4.25154C6.50307 4.58538 6.75346 4.75231 6.84071 4.9627C6.91699 5.14664 6.91699 5.35336 6.84071 5.5373C6.75346 5.7477 6.50307 5.91462 6.00231 6.24846L4.86564 7.00624C4.2596 7.41027 3.95658 7.61228 3.7053 7.59728C3.48639 7.58421 3.28417 7.47598 3.15187 7.30109C3 7.10034 3 6.73615 3 6.00778V4.49222C3 3.76385 3 3.39966 3.15187 3.19891C3.28417 3.02402 3.48639 2.91579 3.7053 2.90272C3.95658 2.88772 4.2596 3.08973 4.86564 3.49376L6.00231 4.25154Z" fill="#C279FF"/>
<path d="M9.75 12H20.625" stroke="#C279FF" stroke-width="1.5" stroke-linecap="round" stroke-linejoin="round"/>
<path d="M6.00231 11.0015C6.50307 11.3354 6.75346 11.5023 6.84071 11.7127C6.91699 11.8966 6.91699 12.1034 6.84071 12.2873C6.75346 12.4977 6.50307 12.6646 6.00231 12.9985L4.86564 13.7562C4.2596 14.1603 3.95658 14.3623 3.7053 14.3473C3.48639 14.3342 3.28417 14.226 3.15187 14.0511C3 13.8503 3 13.4862 3 12.7578V11.2422C3 10.5138 3 10.1497 3.15187 9.94891C3.28417 9.77402 3.48639 9.66579 3.7053 9.65272C3.95658 9.63772 4.2596 9.83973 4.86564 10.2438L6.00231 11.0015Z" fill="#C279FF"/>
<path d="M9.75 18.75H20.625" stroke="#C279FF" stroke-width="1.5" stroke-linecap="round" stroke-linejoin="round"/>
<path d="M6.00231 17.7515C6.50307 18.0854 6.75346 18.2523 6.84071 18.4627C6.91699 18.6466 6.91699 18.8534 6.84071 19.0373C6.75346 19.2477 6.50307 19.4146 6.00231 19.7485L4.86564 20.5062C4.2596 20.9103 3.95658 21.1123 3.7053 21.0973C3.48639 21.0842 3.28417 20.976 3.15187 20.8011C3 20.6003 3 20.2362 3 19.5078V17.9922C3 17.2638 3 16.8997 3.15187 16.6989C3.28417 16.524 3.48639 16.4158 3.7053 16.4027C3.95658 16.3877 4.2596 16.5897 4.86564 16.9938L6.00231 17.7515Z" fill="#C279FF"/>
</svg>
