<svg width="16" height="16" viewBox="0 0 16 16" fill="none" xmlns="http://www.w3.org/2000/svg">
<path fill-rule="evenodd" clip-rule="evenodd" d="M9.65332 2.81342C10.2125 2.87104 10.8601 3.56446 12.1543 4.95112L13.4717 6.36225C14.0101 6.93917 14.2792 7.22822 14.3809 7.55658C14.4703 7.84562 14.4704 8.15526 14.3809 8.44428C14.2791 8.77247 14.0099 9.06097 13.4717 9.63764L12.1543 11.0488C10.86 12.4355 10.2126 13.1288 9.65332 13.1865C9.16856 13.2363 8.68945 13.0479 8.36914 12.6806C7.99971 12.2568 8 11.3079 8 9.41108C8 9.2765 8 9.20921 7.98901 9.17338C7.94081 9.01621 7.75664 8.94755 7.61731 9.0348C7.58555 9.05469 7.5415 9.10556 7.4534 9.20729L6.21387 10.6386C4.91109 12.1418 4.25928 12.8933 3.69238 12.9667C3.20131 13.0302 2.71049 12.8469 2.38086 12.4775C2.00037 12.0508 2 11.0559 2 9.06635V6.93354C2 4.94418 2.00039 3.94905 2.38086 3.5224C2.71049 3.15305 3.20138 2.96973 3.69238 3.03315C4.25931 3.10651 4.91098 3.85892 6.21387 5.36225L7.45374 6.79261C7.54163 6.89401 7.58558 6.9447 7.61725 6.96455C7.75665 7.0519 7.94095 6.98314 7.98907 6.82584C8 6.79009 8 6.723 8 6.58881C8 4.69188 7.99962 3.74298 8.36914 3.31928C8.68944 2.95205 9.1686 2.76362 9.65332 2.81342Z" fill="#C279FF"/>
</svg>
