<svg width="16" height="16" viewBox="0 0 16 16" fill="none" xmlns="http://www.w3.org/2000/svg">
<path fill-rule="evenodd" clip-rule="evenodd" d="M6.34668 2.81342C5.78747 2.87104 5.13991 3.56446 3.8457 4.95112L2.52832 6.36225C1.98986 6.93917 1.72085 7.22822 1.61914 7.55658C1.52967 7.84562 1.52962 8.15526 1.61914 8.44428C1.72094 8.77247 1.9901 9.06097 2.52832 9.63764L3.8457 11.0488C5.14001 12.4355 5.78745 13.1288 6.34668 13.1865C6.83144 13.2363 7.31055 13.0479 7.63086 12.6806C8.00029 12.2568 8 11.3079 8 9.41108C8 9.2765 8 9.20921 8.01099 9.17338C8.05919 9.01621 8.24336 8.94755 8.38269 9.0348C8.41445 9.05469 8.4585 9.10556 8.5466 9.20729L9.78613 10.6386C11.0889 12.1418 11.7407 12.8933 12.3076 12.9667C12.7987 13.0302 13.2895 12.8469 13.6191 12.4775C13.9996 12.0508 14 11.0559 14 9.06635V6.93354C14 4.94418 13.9996 3.94905 13.6191 3.5224C13.2895 3.15305 12.7986 2.96973 12.3076 3.03315C11.7407 3.10651 11.089 3.85892 9.78613 5.36225L8.54626 6.79261C8.45837 6.89401 8.41442 6.9447 8.38275 6.96455C8.24335 7.0519 8.05905 6.98314 8.01093 6.82584C8 6.79009 8 6.723 8 6.58881C8 4.69188 8.00038 3.74298 7.63086 3.31928C7.31056 2.95205 6.8314 2.76362 6.34668 2.81342Z" fill="#C279FF"/>
</svg>
