<svg width="16" height="16" viewBox="0 0 16 16" fill="none" xmlns="http://www.w3.org/2000/svg">
<path d="M8 2.25C12.4518 2.25 14.25 4.60051 14.25 7.5C14.25 10.3995 12.4518 12.75 8 12.75C7.40309 12.75 6.85414 12.7061 6.35059 12.626C5.6512 13.2257 4.80833 13.6387 3.90039 13.8203C3.53406 13.8936 3.24715 13.506 3.41406 13.1719C3.63901 12.722 3.79936 12.2406 3.89551 11.7471C2.40344 10.7927 1.75 9.24665 1.75 7.5C1.75 4.60051 3.54822 2.25 8 2.25ZM6.25 5.25C5.42157 5.25 4.75 5.86561 4.75 6.625C4.75 7.38439 5.42157 8 6.25 8C6.28285 8 6.31533 7.99702 6.34766 7.99512C6.16228 8.28372 5.91885 8.53647 5.625 8.73242L5.47266 8.83398C5.24297 8.98716 5.18089 9.29761 5.33398 9.52734C5.48717 9.75702 5.79761 9.81913 6.02734 9.66602L6.17969 9.56445C7.16073 8.9103 7.75 7.80904 7.75 6.62988C7.75 6.62825 7.75002 6.62663 7.75 6.625C7.75 5.86561 7.07843 5.25 6.25 5.25ZM9.75 5.25C8.92157 5.25 8.25 5.86561 8.25 6.625C8.25 7.38439 8.92157 8 9.75 8C9.78285 8 9.81533 7.99702 9.84766 7.99512C9.66228 8.28372 9.41885 8.53647 9.125 8.73242L8.97266 8.83398C8.74297 8.98716 8.68089 9.29761 8.83398 9.52734C8.98717 9.75702 9.29761 9.81913 9.52734 9.66602L9.67969 9.56445C10.6607 8.9103 11.25 7.80904 11.25 6.62988C11.25 6.62825 11.25 6.62663 11.25 6.625C11.25 5.86561 10.5784 5.25 9.75 5.25Z" fill="#C279FF"/>
</svg>
