<svg width="34" height="26" viewBox="0 0 34 26" fill="none" xmlns="http://www.w3.org/2000/svg">
<path d="M19.5498 0C23.1201 0 24.9058 0.000479038 26.2695 0.695312C27.4687 1.30644 28.4436 2.2813 29.0547 3.48047C29.7495 4.84416 29.75 6.62986 29.75 10.2002V15.2998C29.75 18.8701 29.7495 20.6558 29.0547 22.0195C28.4436 23.2187 27.4687 24.1936 26.2695 24.8047C24.9058 25.4995 23.1201 25.5 19.5498 25.5H14.4502C10.8799 25.5 9.09416 25.4995 7.73047 24.8047C6.5313 24.1936 5.55644 23.2187 4.94531 22.0195C4.25048 20.6558 4.25 18.8701 4.25 15.2998V10.2002C4.25 6.62986 4.25048 4.84416 4.94531 3.48047C5.55644 2.2813 6.5313 1.30644 7.73047 0.695312C9.09416 0.000479038 10.8799 0 14.4502 0H19.5498ZM12.5635 6.56641V18.9346H21.4375V16.7432H15.1201V13.7549H20.9639V11.6211H15.1201V8.75781H21.4375V6.56641H12.5635Z" fill="#9A9FB2"/>
</svg>
