<svg width="24" height="24" viewBox="0 0 24 24" fill="none" xmlns="http://www.w3.org/2000/svg">
<path d="M12.5127 3.41204C12.8187 3.31009 13.1559 3.41594 13.3496 3.67376L13.916 4.42864C14.2231 4.83811 14.6113 5.18051 15.0557 5.4345L15.791 5.85442C16.6785 6.36151 17.2698 7.2634 17.3828 8.27922C17.5512 9.79529 17.3886 11.3301 16.9062 12.7773L16.8369 12.9863C16.7059 13.3792 16.2807 13.5919 15.8877 13.4609C15.495 13.3298 15.2824 12.9054 15.4131 12.5126L15.4834 12.3027C15.7289 11.5659 15.8755 10.8025 15.9256 10.0319C15.9267 10.0142 15.9273 10.0053 15.9273 9.99343C15.9273 9.98502 15.9267 9.97013 15.926 9.96174C15.925 9.94988 15.9241 9.94365 15.9223 9.93118C15.887 9.69251 15.7878 9.46652 15.6318 9.27922L15.5215 9.14739C15.3836 8.98191 15.2014 8.85819 14.9971 8.78997L14.5254 8.63176C14.3508 8.57346 14.1877 8.48406 14.0439 8.36907C13.8252 8.19406 13.5006 8.34991 13.5 8.62981V17.624L13.4951 17.8212C13.3946 19.8144 11.7563 20.624 9.75 20.624C7.67893 20.624 6 19.7608 6 17.624C6.00025 15.4874 7.67909 14.624 9.75 14.624C10.2199 14.624 10.6696 14.6684 11.0842 14.7621C11.4568 14.8463 11.6432 14.8884 11.7414 14.8563C11.8396 14.8242 11.8942 14.7806 11.947 14.6919C12 14.6032 12 14.4386 12 14.1095V4.12395C12.0002 3.80129 12.2066 3.51408 12.5127 3.41204Z" fill="#C279FF"/>
</svg>
