<svg width="16" height="16" viewBox="0 0 16 16" fill="none" xmlns="http://www.w3.org/2000/svg">
<path d="M10.9456 5.22821C12.522 6.13772 13.3103 6.59247 13.5748 7.18629C13.8054 7.70424 13.8054 8.29576 13.5748 8.81371C13.3103 9.40753 12.522 9.86228 10.9456 10.7718L7.54911 12.7313C5.97414 13.6399 5.18666 14.0942 4.5405 14.0262C3.97689 13.9668 3.46492 13.6711 3.13185 13.2126C2.75 12.6869 2.75 11.7778 2.75 9.95949V6.04051C2.75 4.22223 2.75 3.31309 3.13185 2.78741C3.46492 2.32888 3.97689 2.03319 4.5405 1.97382C5.18666 1.90576 5.97414 2.36008 7.54911 3.26872L10.9456 5.22821Z" fill="#C279FF"/>
</svg>
